<svg width="200" height="200" viewBox="0 0 200 200" xmlns="http://www.w3.org/2000/svg"><title>trello-mark-white</title><path d="M25 0C11.194 0 0 11.2 0 25v150c0 13.806 11.2 25 25 25h150c13.806 0 25-11.2 25-25V25c0-13.807-11.2-25-25-25H25zm99.997 26C118.37 26 113 31.375 113 38.006v63.488c0 6.63 5.373 12.006 11.997 12.006h37.006c6.626 0 11.997-5.375 11.997-12.006V38.006C174 31.376 168.627 26 162.003 26h-37.006zm-87 0C31.37 26 26 31.37 26 37.992v113.516c0 6.623 5.373 11.992 11.997 11.992h37.006C81.63 163.5 87 158.13 87 151.508V37.992C87 31.37 81.627 26 75.003 26H37.997z" fill="#FFF" fill-rule="evenodd"/></svg>